Coordinates
version=1
nRows=14
nColumns=40
inDegrees=yes

Units are S.I. units (second, meters, Newtons, ...)
Angles are in degrees.

endheader
time	pelvis_tilt	pelvis_list	pelvis_rotation	pelvis_tx	pelvis_ty	pelvis_tz	hip_flexion_r	hip_adduction_r	hip_rotation_r	knee_angle_r	knee_angle_r_beta	ankle_angle_r	subtalar_angle_r	mtp_angle_r	hip_flexion_l	hip_adduction_l	hip_rotation_l	knee_angle_l	knee_angle_l_beta	ankle_angle_l	subtalar_angle_l	mtp_angle_l	lumbar_extension	lumbar_bending	lumbar_rotation	arm_flex_r	arm_add_r	arm_rot_r	elbow_flex_r	pro_sup_r	wrist_flex_r	wrist_dev_r	arm_flex_l	arm_add_l	arm_rot_l	elbow_flex_l	pro_sup_l	wrist_flex_l	wrist_dev_l
     17.44000000	     -4.21631273	     -4.07387159	      6.22546244	      0.88139859	      0.92501116	      0.39692644	     15.46733504	     -8.53459160	    -11.63269200	     52.56829243	     52.56829243	      6.45555987	    -18.73583841	      6.17694977	     17.82848431	     -2.45301012	     -1.67546762	     27.24277765	     27.24277765	     15.97506573	    -16.00057849	      7.10257886	     -9.36550865	      5.89961262	      5.50648731	     38.26393781	     -6.19069394	     29.29229045	     73.21645665	     45.81302980	      0.00000000	      0.00000000	     10.45266749	    -21.41714334	    -21.69935047	     49.86831597	     45.92273175	      0.00000000	      0.00000000
     17.45935714	     -4.08098995	     -3.99640845	      5.67059143	      0.87817311	      0.92397899	      0.39499127	     17.40111635	     -8.80121172	    -11.25722367	     55.23863704	     55.23863704	      7.77974947	    -19.02852488	     10.07906631	     17.68338001	     -2.33041231	     -1.94954824	     27.82265075	     27.82265075	     16.60611179	    -16.37027910	      7.48768163	     -9.65663716	      6.01141614	      5.15480182	     36.11754614	     -7.10772581	     28.37219240	     69.74993338	     45.88685943	      0.00000000	      0.00000000	     11.75631430	    -21.94389780	    -21.70750614	     51.47060650	     46.06764125	      0.00000000	      0.00000000
     17.47871429	     -3.96461800	     -3.82560025	      5.09094377	      0.87492276	      0.92280567	      0.39296681	     19.20263111	     -9.24690647	    -11.06569325	     57.46472189	     57.46472189	      8.17211485	    -19.25432809	     10.68305870	     17.50466899	     -2.10704290	     -2.31274828	     28.32720073	     28.32720073	     17.05061273	    -16.76965544	      7.37776381	     -9.97097405	      6.00752674	      5.02452147	     33.90506558	     -8.77587035	     28.26717415	     67.32483336	     45.94989668	      0.00000000	      0.00000000	     13.46242833	    -22.35711533	    -21.80710723	     52.82437443	     46.12546170	      0.00000000	      0.00000000
     17.49807143	     -3.77473357	     -3.82266984	      4.51562106	      0.87175001	      0.92192721	      0.39129291	     20.98178299	     -9.24365620	    -10.65316015	     59.47639928	     59.47639928	     10.04420680	    -19.35848830	     16.23433348	     17.26896915	     -2.08940618	     -2.61575581	     28.86485793	     28.86485793	     17.77359036	    -17.02245505	      7.98748909	    -10.32877356	      6.18408169	      4.65981302	     32.06553091	     -8.97880329	     25.96879147	     61.86446694	     46.14715442	      0.00000000	      0.00000000	     14.76251371	    -23.06143233	    -21.61211475	     54.48857829	     46.24644315	      0.00000000	      0.00000000
     17.51742857	     -3.61028457	     -3.75234509	      3.91537893	      0.86865053	      0.92107668	      0.38976900	     22.54304566	     -9.36451851	    -10.45085673	     60.76936914	     60.76936914	     10.81858451	    -19.44402735	     17.82883998	     16.99052411	     -2.01648350	     -3.00547028	     29.28030856	     29.28030856	     18.33699126	    -17.25203621	      8.18998171	    -10.70002451	      6.25327324	      4.57130692	     30.13271552	    -10.09313597	     24.90007272	     58.06655618	     46.26219250	      0.00000000	      0.00000000	     16.43273042	    -23.55045159	    -21.71580307	     55.89608186	     46.35310303	      0.00000000	      0.00000000
     17.53678571	     -3.55555908	     -3.71983408	      3.31478847	      0.86561394	      0.92032368	      0.38853852	     24.09665928	     -9.36724043	    -10.27411480	     61.46963230	     61.46963230	     11.56637230	    -19.48854962	     19.31405637	     16.79544979	     -1.99935822	     -3.43101978	     29.60824220	     29.60824220	     18.86104772	    -17.40532086	      8.52599520	    -10.96294860	      6.36261394	      4.31886192	     28.35785301	    -10.71957236	     23.14492614	     53.55831190	     46.41448402	      0.00000000	      0.00000000	     17.86729129	    -24.16687141	    -21.86362586	     57.14215394	     46.47536484	      0.00000000	      0.00000000
     17.55614286	     -3.55359400	     -3.72700766	      2.69089699	      0.86274681	      0.91975297	      0.38768889	     25.49807642	     -9.26834452	    -10.20205948	     61.44337852	     61.44337852	     11.93609890	    -19.51229379	     19.39690296	     16.58850337	     -2.05414242	     -3.90061716	     29.80686679	     29.80686679	     19.20988465	    -17.55536982	      8.51698695	    -11.21252835	      6.47577665	      4.38420956	     26.23274364	    -12.25426063	     22.74386830	     50.95518452	     46.49135752	      0.00000000	      0.00000000	     19.46526299	    -24.57158669	    -22.11427282	     58.52218889	     46.54746481	      0.00000000	      0.00000000
     17.57550000	     -3.53715601	     -3.79616624	      2.05640688	      0.86007540	      0.91961719	      0.38727561	     26.68931606	     -8.99787925	    -10.17854926	     60.71754395	     60.71754395	     12.28530185	    -19.51597005	     19.50347098	     16.26080556	     -2.20204430	     -4.38571029	     29.81505880	     29.81505880	     19.51607216	    -17.61140036	      8.62583930	    -11.46551072	      6.64138539	      4.44043178	     24.21357651	    -13.45616580	     21.90259500	     47.67160951	     46.61061101	      0.00000000	      0.00000000	     20.94364825	    -25.00490213	    -22.38261483	     59.86193773	     46.62268167	      0.00000000	      0.00000000
     17.59485714	     -3.62125418	     -3.85594976	      1.44418609	      0.85756475	      0.91973907	      0.38728494	     27.76456408	     -8.65751790	    -10.20361298	     59.27150689	     59.27150689	     12.56591374	    -19.48278191	     19.44333994	     15.95705297	     -2.35011406	     -4.85903531	     29.66005717	     29.66005717	     19.68768157	    -17.68934392	      8.65649226	    -11.61680723	      6.83137147	      3.74264399	     22.11571809	    -14.58923509	     21.70836630	     46.30709012	     46.64993528	      0.00000000	      0.00000000	     21.75090385	    -26.29109838	    -22.79515244	     60.39435253	     46.67526562	      0.00000000	      0.00000000
     17.61421429	     -3.75850486	     -3.99588967	      0.77785092	      0.85524142	      0.92026742	      0.38783273	     28.60917905	     -8.16246040	    -10.33458870	     57.04524085	     57.04524085	     12.27253486	    -19.43031844	     17.77171336	     15.58937712	     -2.64080912	     -5.45971505	     29.30425671	     29.30425671	     19.84408094	    -17.60418221	      8.93142791	    -11.61466869	      6.99505651	      3.80565545	     20.83962168	    -14.28494602	     17.65043026	     39.19594820	     47.02301364	      0.00000000	      0.00000000	     22.82152576	    -26.50155328	    -23.57370726	     62.45017719	     46.84334915	      0.00000000	      0.00000000
     17.63357143	     -3.89994940	     -4.18281456	      0.12243982	      0.85312041	      0.92111091	      0.38883792	     29.21713508	     -7.46004088	    -10.36412718	     54.17656154	     54.17656154	     12.05021334	    -19.32813237	     16.93921744	     15.13550380	     -2.97778859	     -5.95861319	     28.80347439	     28.80347439	     19.90303393	    -17.54326205	      8.96819415	    -11.73154116	      7.21757404	      3.83713956	     18.47039300	    -15.50894836	     16.65261684	     37.24607534	     47.09773175	      0.00000000	      0.00000000	     23.77843080	    -27.07662633	    -24.15436902	     63.98678079	     46.94249386	      0.00000000	      0.00000000
     17.65292857	     -4.16549781	     -4.31711263	     -0.52379465	      0.85122495	      0.92201801	      0.39022320	     29.58355873	     -6.80738075	    -10.53094989	     50.53542268	     50.53542268	     10.70650110	    -19.18494402	     12.86377687	     14.69275693	     -3.27781138	     -6.52911360	     28.08588035	     28.08588035	     19.73658940	    -17.46988241	      8.75952749	    -11.64957983	      7.39259793	      3.76568956	     16.27620842	    -15.56399876	     10.71042480	     33.97847867	     47.19691411	      0.00000000	      0.00000000	     24.47084097	    -27.72894767	    -24.82817219	     65.41966162	     47.23724979	      0.00000000	      0.00000000
     17.67228571	     -4.48299652	     -4.54453928	     -1.12218299	      0.84944949	      0.92295005	      0.39211618	     29.89743335	     -5.87948818	    -10.43913793	     46.70207160	     46.70207160	     10.42918347	    -18.79428921	     12.80455288	     14.29298985	     -3.69815736	     -7.02508810	     27.36534540	     27.36534540	     19.69702156	    -17.32771526	      8.87881267	    -11.48082783	      7.68757878	      3.40280498	     13.84115864	    -16.72467852	     10.54166433	     32.83999925	     47.22066093	      0.00000000	      0.00000000	     25.03164435	    -28.87655738	    -25.30955676	     66.17574784	     47.29538678	      0.00000000	      0.00000000
     17.69164286	     -4.61981151	     -4.67073404	     -1.71823605	      0.84811804	      0.92412467	      0.39424905	     29.37053564	     -5.18068314	    -10.75063686	     41.76712127	     41.76712127	      7.40598267	    -18.36253156	      4.69895004	     13.55491296	     -4.03144124	     -7.68667390	     26.43957142	     26.43957142	     19.28289963	    -17.16465912	      8.02639103	    -11.57735575	      7.78918509	      3.43257858	     11.32645090	    -17.56149856	      7.89636361	     31.13371934	     47.30876963	      0.00000000	      0.00000000	     25.43499349	    -29.43731753	    -26.32320496	     68.59885424	     47.48250659	      0.00000000	      0.00000000
